<?xml version="1.0" encoding="utf-8"?>
<!-- Svg Vector Icons : http://www.onlinewebfonts.com/icon -->
<!DOCTYPE svg PUBLIC "-//W3C//DTD SVG 1.1//EN" "http://www.w3.org/Graphics/SVG/1.1/DTD/svg11.dtd">
<svg version="1.1" xmlns="http://www.w3.org/2000/svg" xmlns:xlink="http://www.w3.org/1999/xlink" x="0px" y="0px" viewBox="0 0 1000 1000" fill="white" xml:space="preserve">
<metadata> Svg Vector Icons : http://www.onlinewebfonts.com/icon </metadata>
<g><path d="M481.8,80.4L215.9,319.8H10.1v185.3l-0.1,0.1l0.1,0.1v183.4H217l264.8,234.7l0-234.7h0.1V319.8h-0.1L481.8,80.4L481.8,80.4z M445.6,647.7L445.6,647.7l-0.1,41v150.5L239.4,656.4l-9.9-8.7H217H46.4V505.3v-0.2V360.8h169.5h12.7l9.9-8.9l207-186.4v154.3l0.1,41V647.7z"/><path d="M566.6,293.5c39.5,59.4,60.3,130.2,60.3,204.8c0,76.1-21.7,148.1-62.7,208.2l28.8,25c45.9-67.4,70.2-148,70.2-233.2c0-83.5-23.4-162.8-67.6-229.4L566.6,293.5z"/><path d="M712.8,144.9l-28,26.1c68.2,93.2,105.7,211.4,105.7,332.6c0,119.8-34.9,232.4-100.9,325.8L718,855c71.2-100.7,108.8-222.2,108.8-351.4C826.8,372.9,786.3,245.5,712.8,144.9z"/><path d="M825.8,11.9l-27.2,27.1c100.1,128.4,155.2,293.4,155.2,464.8c0,167.9-53.2,330.5-149.8,457.7l27.5,26.7C933.7,853.5,990,681.4,990,503.8C990,322.4,931.7,147.7,825.8,11.9z"/></g>
</svg>